<?xml version="1.0" standalone="no"?>
<!DOCTYPE svg PUBLIC "-//W3C//DTD SVG 20010904//EN"
 "http://www.w3.org/TR/2001/REC-SVG-20010904/DTD/svg10.dtd">
<svg version="1.0" xmlns="http://www.w3.org/2000/svg"
 width="509.000000pt" height="509.000000pt" viewBox="0 0 509.000000 509.000000"
 preserveAspectRatio="xMidYMid meet">
<metadata>
Created by potrace 1.11, written by Peter Selinger 2001-2013
</metadata>
<g transform="translate(0.000000,509.000000) scale(0.100000,-0.100000)"
fill="#000000" stroke="none">
<path d="M2029 4996 c-2 -2 -24 -7 -49 -10 -75 -9 -114 -16 -135 -25 -53 -20
-161 -78 -183 -98 -14 -13 -29 -23 -33 -23 -5 0 -9 -4 -9 -9 0 -5 -13 -23 -30
-41 -58 -62 -116 -188 -125 -270 -2 -19 -4 -35 -5 -35 -4 0 -10 -48 -15 -115
-3 -41 -8 -92 -10 -113 -3 -33 -31 -99 -82 -199 -8 -16 -11 -28 -7 -28 3 0 1
-6 -5 -14 -18 -21 3 -28 25 -8 24 21 73 47 78 41 6 -6 14 -51 21 -124 3 -33
12 -98 20 -145 39 -230 51 -473 31 -664 -4 -37 -9 -142 -11 -233 -3 -127 -7
-169 -19 -182 -8 -9 -17 -36 -21 -61 -8 -56 -33 -99 -62 -106 -12 -3 -27 -12
-34 -20 -6 -8 -15 -11 -20 -8 -5 3 -9 0 -9 -6 0 -6 -4 -8 -10 -5 -5 3 -10 3
-10 -2 0 -8 -45 -37 -65 -42 -5 -1 -14 -9 -18 -17 -4 -8 -15 -14 -22 -14 -8 0
-15 -3 -15 -7 0 -5 -14 -17 -30 -28 -16 -11 -30 -26 -30 -32 0 -7 -4 -13 -9
-13 -5 0 -34 -25 -66 -55 -31 -30 -58 -55 -60 -55 -3 0 -28 11 -57 25 -87 41
-194 40 -225 -2 -12 -15 -17 -15 -60 5 -44 20 -110 28 -195 23 -15 0 -43 -15
-62 -32 -32 -28 -35 -34 -30 -75 2 -24 2 -44 0 -44 -2 0 -19 7 -38 14 -21 9
-62 14 -106 13 -62 -2 -75 -5 -97 -28 -15 -14 -27 -32 -28 -40 -2 -8 -5 -18
-9 -24 -11 -18 -2 -60 20 -95 12 -19 22 -31 22 -27 0 4 10 -1 22 -13 29 -27
174 -101 182 -93 3 4 6 2 6 -4 0 -6 12 -14 26 -17 14 -4 45 -16 69 -27 23 -11
52 -21 64 -22 11 -1 21 -6 21 -12 0 -12 -30 -30 -189 -111 -123 -63 -134 -72
-88 -69 77 3 70 -12 -13 -28 -97 -19 -152 -34 -130 -37 8 -1 35 -4 60 -6 48
-3 112 -11 120 -15 10 -4 25 -7 50 -8 17 -1 21 -4 12 -10 -7 -4 -75 -7 -150
-6 -76 0 -148 -2 -162 -6 l-25 -6 29 -12 c16 -6 44 -14 64 -17 43 -7 54 -9
122 -27 30 -8 62 -15 70 -15 8 0 27 -3 43 -6 15 -3 39 -8 55 -12 15 -3 41 -8
57 -11 17 -3 38 -6 48 -7 9 0 17 -3 17 -6 0 -3 17 -6 38 -6 20 -1 60 -4 87 -8
169 -20 340 -26 414 -15 55 8 65 -1 116 -107 22 -43 43 -80 47 -82 4 -2 8 -9
8 -16 0 -33 147 -210 233 -280 35 -29 36 -32 31 -85 -2 -31 -6 -87 -9 -126 -6
-84 -7 -91 -24 -132 -7 -18 -17 -30 -21 -28 -5 3 -11 1 -15 -5 -4 -6 -11 -8
-16 -4 -30 18 -150 24 -187 8 -49 -20 -38 -30 33 -31 153 -2 364 -105 390
-190 3 -13 11 -23 16 -23 5 0 9 -9 9 -19 0 -11 5 -23 10 -26 6 -4 7 -12 3 -18
-4 -7 1 -6 10 2 10 8 16 19 14 25 -3 6 -1 18 4 27 5 10 1 30 -12 54 -11 20
-18 40 -15 42 10 10 73 -27 113 -65 22 -21 50 -60 62 -85 21 -43 40 -66 28
-32 -4 8 -2 17 2 20 16 9 1 88 -19 107 -11 10 -20 23 -20 28 0 6 -7 10 -15 10
-8 0 -15 4 -15 9 0 11 36 21 45 13 3 -3 13 -7 23 -8 40 -6 102 -27 102 -35 0
-5 5 -9 10 -9 11 0 50 -36 46 -42 -2 -2 6 -11 16 -21 17 -16 21 -14 21 18 0 8
-1 21 -2 29 -2 21 -66 86 -85 86 -9 0 -16 5 -16 11 0 6 -6 9 -14 6 -8 -3 -16
-2 -18 3 -3 8 -50 16 -149 25 -25 2 -75 11 -110 20 -35 10 -74 19 -86 21 -70
13 -76 21 -75 99 0 38 18 170 22 170 1 0 4 16 7 35 7 49 17 63 47 66 15 1 62
21 104 42 83 43 187 76 269 87 105 14 134 9 228 -38 82 -40 138 -58 189 -61
10 -1 20 -9 22 -20 1 -10 12 -40 23 -67 22 -51 28 -114 11 -124 -6 -4 -44 -7
-86 -8 -75 -2 -93 -11 -94 -46 0 -10 3 -11 13 -3 8 7 51 10 113 8 102 -4 121
-7 140 -18 6 -4 23 -9 39 -12 53 -10 155 -91 155 -123 0 -7 5 -13 10 -13 6 0
10 -7 10 -16 0 -8 5 -12 10 -9 25 15 -3 125 -32 125 -6 0 -8 3 -4 7 9 10 36
13 36 4 0 -3 14 -12 30 -18 44 -17 43 -16 64 -33 36 -30 76 -75 76 -87 0 -7 5
-13 10 -13 13 0 13 41 -1 77 -5 15 -26 42 -46 60 l-36 32 71 -3 c60 -3 78 -9
119 -37 26 -18 51 -37 54 -42 10 -15 18 6 12 35 -6 31 -52 70 -103 86 -19 6
-96 12 -170 12 -129 0 -212 5 -255 14 -11 3 -28 5 -38 5 -21 1 -45 52 -49 105
-1 20 -5 36 -8 36 -3 0 -5 10 -6 23 0 12 -3 37 -6 54 -6 29 -1 38 43 83 43 44
139 179 139 196 0 3 9 19 21 35 11 16 18 29 15 29 -3 0 10 33 28 73 62 135 92
214 88 230 -1 4 18 6 43 3 26 -2 51 1 58 8 7 6 19 12 27 14 13 3 69 59 154
156 l26 29 6 -31 c3 -17 16 -39 28 -50 23 -21 83 -34 92 -20 3 5 10 6 15 3 10
-7 94 32 120 55 9 8 44 41 77 74 33 32 65 55 71 51 6 -3 9 -10 6 -15 -15 -24
41 -71 60 -51 4 3 10 6 13 7 24 3 148 84 129 84 -3 0 6 12 20 27 14 16 48 62
74 103 l49 74 10 -30 c27 -77 107 -55 177 49 35 52 63 104 67 127 1 3 4 10 7
15 8 12 21 72 19 81 -4 16 26 21 50 9 21 -11 30 -11 50 0 13 7 33 11 45 9 11
-3 72 -6 135 -8 103 -3 152 0 244 19 16 3 33 7 39 8 18 3 35 21 30 30 -3 5
-17 13 -31 19 -29 11 -28 10 -117 32 -78 19 -149 40 -205 60 -25 10 -52 19
-60 21 -8 2 -16 4 -17 5 -2 2 -6 3 -10 4 -22 4 -92 51 -86 57 5 4 64 9 133 12
69 3 136 8 150 11 52 12 76 17 99 22 14 3 29 8 35 12 6 3 17 7 24 8 23 4 125
56 162 83 89 65 172 163 149 177 -6 3 -22 3 -37 -1 -15 -4 -27 -6 -27 -4 0 1
-9 -3 -21 -9 -12 -6 -54 -18 -95 -27 -41 -9 -81 -18 -89 -19 -121 -28 -470
-50 -499 -32 -17 11 -3 26 23 26 12 0 26 4 32 9 5 5 36 16 69 25 33 9 67 20
75 23 8 3 17 7 20 8 28 7 117 39 125 45 6 5 19 10 30 12 11 1 22 5 25 8 3 3
43 24 90 47 102 51 136 71 169 101 14 12 29 22 33 22 9 0 95 78 127 116 15 18
61 105 61 116 0 4 -7 16 -16 27 -16 18 -20 17 -132 -40 -64 -33 -123 -59 -132
-59 -9 0 -21 -5 -26 -10 -6 -6 -21 -12 -34 -15 -13 -2 -46 -12 -74 -22 -28 -9
-53 -17 -56 -18 -3 0 -11 -4 -18 -8 -7 -5 -25 -10 -40 -13 -25 -4 -46 -11 -97
-30 -23 -8 -31 -10 -65 -17 -25 -5 -82 -22 -195 -59 -33 -11 -64 -21 -70 -22
-5 -1 -16 -5 -22 -9 -7 -5 -13 -5 -13 0 0 4 -4 3 -8 -2 -4 -6 -24 -19 -44 -30
-21 -11 -38 -23 -38 -26 0 -4 -15 -17 -32 -28 -18 -11 -45 -31 -60 -43 -14
-13 -37 -31 -50 -40 -13 -9 -37 -29 -55 -43 -17 -15 -35 -27 -39 -28 -5 -1
-22 -14 -38 -29 -17 -16 -36 -28 -44 -28 -7 0 -10 -4 -7 -10 3 -5 2 -10 -3
-10 -5 0 -49 -27 -98 -60 -49 -33 -95 -60 -101 -60 -7 0 -13 -4 -13 -9 0 -4
-22 -19 -50 -32 -27 -13 -50 -27 -50 -30 0 -7 -50 -23 -63 -21 -4 1 -17 -3
-28 -8 -34 -19 -199 -34 -224 -21 -5 3 -14 6 -20 7 -13 3 -55 12 -80 18 -11 2
-33 11 -50 19 -16 8 -46 22 -66 31 -20 10 -46 26 -57 36 -12 11 -25 20 -30 20
-14 0 -40 69 -47 125 -4 28 -8 61 -10 75 -19 133 -20 148 -13 273 1 37 1 67
-2 67 -3 0 -5 47 -5 105 0 58 2 105 5 105 3 0 6 19 6 43 1 49 13 212 19 277 3
25 8 79 11 120 3 41 7 93 9 115 12 105 18 217 17 290 -1 78 -8 180 -12 180 -1
0 -3 11 -5 25 -10 88 -18 131 -32 175 -10 28 -18 52 -18 55 -4 23 -20 58 -34
74 -9 10 -15 21 -13 25 8 22 -162 226 -180 215 -4 -3 -8 -1 -8 5 0 10 -113 68
-148 76 -9 2 -44 11 -77 19 -55 14 -176 22 -186 12z m-1258 -3043 c-8 -15 -10
-15 -11 -2 0 17 10 32 18 25 2 -3 -1 -13 -7 -23z"/>
</g>
</svg>
